<?xml version="1.0" encoding="utf-8"?>
<!-- Generator: Adobe Illustrator 19.2.1, SVG Export Plug-In . SVG Version: 6.00 Build 0)  -->
<svg version="1.1" id="Layer_1" xmlns="http://www.w3.org/2000/svg" xmlns:xlink="http://www.w3.org/1999/xlink" x="0px" y="0px"
	 viewBox="0 0 128 128" style="enable-background:new 0 0 128 128;" xml:space="preserve">
<style type="text/css">
	.st0{opacity:0.2;fill:#1C1C3A;enable-background:new    ;}
	.st1{fill:url(#SVGID_1_);}
	.st2{fill:#FFFFFF;}
</style>
<g>
	<path class="st0" d="M72.9,16.2c-29.1,0-52.7,23.6-52.7,52.7c0,9.3,2.4,18.1,6.7,25.7c-3.9,2.8-8.7,4.5-14,4.5
		c-2.1,0-4-0.3-5.9-0.7c-0.5-0.1-1.1-0.1-1.6-0.2c2.5,4.7,6.7,8.5,12.1,10.4c6.3,2.1,13,1.1,18.2-2.3c9.5,9.5,22.7,15.3,37.2,15.3
		c29.1,0,52.7-23.6,52.7-52.7S102.1,16.2,72.9,16.2z"/>
	
		<linearGradient id="SVGID_1_" gradientUnits="userSpaceOnUse" x1="20.3198" y1="20.5198" x2="106.6813" y2="106.8812" gradientTransform="matrix(1 0 0 -1 0 130)">
		<stop  offset="0" style="stop-color:#308194"/>
		<stop  offset="8.607727e-002" style="stop-color:#2E778F"/>
		<stop  offset="0.4877" style="stop-color:#244E79"/>
		<stop  offset="0.8042" style="stop-color:#1E346C"/>
		<stop  offset="0.9944" style="stop-color:#1C2B67"/>
	</linearGradient>
	<path class="st1" d="M69.4,7.7c-29.1,0-52.7,23.6-52.7,52.7c0,9.3,2.4,18.1,6.7,25.7c-3.9,2.8-8.7,4.5-14,4.5c-2.1,0-4-0.3-5.9-0.7
		c-0.5-0.1-1.1-0.1-1.6-0.2c2.5,4.7,6.7,8.5,12.1,10.4c6.3,2.1,13,1.1,18.2-2.3c9.5,9.5,22.7,15.3,37.2,15.3
		c29.1,0,52.7-23.6,52.7-52.7S98.6,7.7,69.4,7.7z"/>
</g>
<g>
	<path class="st2" d="M56.7,65.6L56,67c-3.1,5.9-4.7,10.4-4.7,13.6c0,0.9,0.4,1.9,1.1,2.8c-0.6,0.2-1.9,0.7-4,1.5
		c-1,0.3-1.9,0.5-2.8,0.5c-1.7,0-2.6-0.8-2.6-2.5c0-3.5,2.2-8.8,6.5-15.9l1.2-1.9h-1.9c-4.1,0-7.3,0.6-9.5,1.9
		c1.2-4.2,4.3-6.3,9.5-6.3l4.6,0.1l1-1.5c3.9-5.9,9.9-13.8,18-23.8c2.7-3.4,4.8-5.5,6.1-6.3c1.3-0.8,4-1.6,7.8-2.2
		c-0.7,4.5-1.1,8.7-1.1,12.5c0,10.3,1.2,20.7,3.6,31.2c1.3,5.8,3.3,9.5,6,11.2c-2.3,2.3-4.4,3.5-6,3.5c-3.9,0-7-6.8-9.1-20.3
		c-4.1,0.4-8.3,0.7-12.5,0.7L56.7,65.6z M59.4,61.2l7.6,0.2c5.2,0,9.1-0.2,11.9-0.5c-1.1-8.8-1.7-16-1.7-21.8v-2.8
		c-0.8,1-2.7,3.3-5.5,6.8c-5.2,6.4-9,11.9-11.4,16.7L59.4,61.2z"/>
</g>
</svg>
