<?xml version="1.0" encoding="utf-8"?>
<!-- Generator: Adobe Illustrator 19.2.1, SVG Export Plug-In . SVG Version: 6.00 Build 0)  -->
<svg version="1.1" id="Layer_1" xmlns="http://www.w3.org/2000/svg" xmlns:xlink="http://www.w3.org/1999/xlink" x="0px" y="0px"
	 viewBox="0 0 24 24" style="enable-background:new 0 0 24 24;" xml:space="preserve">
<style type="text/css">
	.st0{fill:url(#SVGID_1_);}
	.st1{fill:#FFFFFF;}
</style>
<g>
	
		<linearGradient id="SVGID_1_" gradientUnits="userSpaceOnUse" x1="3.9364" y1="4.7864" x2="20.421" y2="21.271" gradientTransform="matrix(1 0 0 -1 0 26)">
		<stop  offset="0" style="stop-color:#308194"/>
		<stop  offset="8.607727e-002" style="stop-color:#2E778F"/>
		<stop  offset="0.4877" style="stop-color:#244E79"/>
		<stop  offset="0.8042" style="stop-color:#1E346C"/>
		<stop  offset="0.9944" style="stop-color:#1C2B67"/>
	</linearGradient>
	<path class="st0" d="M13.3,1.7C7.7,1.7,3.2,6.2,3.2,11.8c0,1.8,0.5,3.5,1.3,4.9c-0.7,0.5-1.7,0.9-2.7,0.9c-0.4,0-0.8,0-1.1-0.1
		c-0.1,0-0.2,0-0.3,0c0.5,0.9,1.3,1.6,2.3,2c1.2,0.4,2.5,0.2,3.5-0.4C8,20.9,10.5,22,13.3,22c5.6,0,10.1-4.5,10.1-10.1
		S18.8,1.7,13.3,1.7z"/>
</g>
<g>
	<path class="st1" d="M10.8,12.8l-0.1,0.3c-0.6,1.1-0.9,2-0.9,2.6c0,0.2,0.1,0.4,0.2,0.5c-0.1,0-0.4,0.1-0.8,0.3
		c-0.2,0.1-0.4,0.1-0.5,0.1c-0.3,0-0.5-0.2-0.5-0.5c0-0.7,0.4-1.7,1.2-3l0.2-0.4H9.3c-0.8,0-1.4,0.1-1.8,0.4
		c0.2-0.8,0.8-1.2,1.8-1.2h0.9l0.2-0.3c0.7-1.1,1.9-2.6,3.4-4.5c0.5-0.6,0.9-1,1.2-1.2s0.8-0.3,1.5-0.4c-0.1,0.9-0.2,1.7-0.2,2.4
		c0,2,0.2,3.9,0.7,6c0.2,1.1,0.6,1.8,1.1,2.1c-0.4,0.4-0.8,0.7-1.2,0.7c-0.8,0-1.3-1.3-1.7-3.9c-0.8,0.1-1.6,0.1-2.4,0.1L10.8,12.8z
		 M11.4,11.9h1.4c1,0,1.7,0,2.3-0.1c-0.2-1.7-0.3-3.1-0.3-4.2V7.1c-0.2,0.2-0.5,0.6-1.1,1.3c-1,1.2-1.7,2.3-2.2,3.2L11.4,11.9z"/>
</g>
</svg>
