<?xml version="1.0" encoding="utf-8"?>
<!-- Generator: Adobe Illustrator 19.2.1, SVG Export Plug-In . SVG Version: 6.00 Build 0)  -->
<svg version="1.1" id="Layer_1" xmlns="http://www.w3.org/2000/svg" xmlns:xlink="http://www.w3.org/1999/xlink" x="0px" y="0px"
	 viewBox="0 0 150 150" style="enable-background:new 0 0 150 150;" xml:space="preserve">
<style type="text/css">
	.st0{opacity:0.2;fill:#1C1C3A;enable-background:new    ;}
	.st1{fill:url(#SVGID_1_);}
	.st2{fill:#FFFFFF;}
</style>
<g>
	<path class="st0" d="M85.6,18.5c-34.4,0-62.3,27.9-62.3,62.3c0,11,2.9,21.4,7.9,30.4c-4.6,3.4-10.3,5.3-16.5,5.3
		c-2.4,0-4.8-0.3-7-0.9c-0.6-0.1-1.3-0.1-1.9-0.2c2.9,5.6,7.9,10.1,14.3,12.2c7.5,2.5,15.3,1.3,21.5-2.7C53,136,68.5,143,85.6,143
		c34.4,0,62.3-27.9,62.3-62.3S120,18.5,85.6,18.5z"/>
	
		<linearGradient id="SVGID_1_" gradientUnits="userSpaceOnUse" x1="23.417" y1="23.317" x2="125.4812" y2="125.3813" gradientTransform="matrix(1 0 0 -1 0 152)">
		<stop  offset="0" style="stop-color:#308194"/>
		<stop  offset="8.607727e-002" style="stop-color:#2E778F"/>
		<stop  offset="0.4877" style="stop-color:#244E79"/>
		<stop  offset="0.8042" style="stop-color:#1E346C"/>
		<stop  offset="0.9944" style="stop-color:#1C2B67"/>
	</linearGradient>
	<path class="st1" d="M81.5,8.4c-34.4,0-62.3,27.9-62.3,62.3c0,11,2.9,21.4,7.9,30.4c-4.6,3.4-10.3,5.3-16.5,5.3
		c-2.4,0-4.8-0.3-7-0.9c-0.6-0.1-1.3-0.1-1.9-0.2c2.9,5.6,7.9,10.1,14.3,12.2c7.5,2.5,15.3,1.3,21.5-2.7
		c11.3,11.2,26.8,18.1,43.9,18.1c34.4,0,62.3-27.9,62.3-62.3S115.8,8.4,81.5,8.4z"/>
</g>
<g>
	<path class="st2" d="M66.5,76.8l-0.9,1.7c-3.7,6.9-5.6,12.2-5.6,16c0,1.1,0.4,2.2,1.3,3.3c-0.7,0.2-2.3,0.8-4.8,1.7
		c-1.2,0.4-2.2,0.6-3.3,0.6c-2.1,0-3.1-1-3.1-3c0-4.1,2.6-10.3,7.7-18.8l1.4-2.3h-2.3c-4.8,0-8.6,0.8-11.2,2.3
		c1.4-5,5.1-7.5,11.2-7.5l5.5,0.1l1.2-1.8c4.6-7,11.7-16.3,21.2-28.1c3.2-4,5.6-6.5,7.2-7.4c1.6-1,4.7-1.9,9.2-2.7
		c-0.9,5.3-1.3,10.2-1.3,14.8c0,12.1,1.4,24.4,4.2,36.8c1.5,6.8,3.9,11.2,7,13.2c-2.8,2.7-5.1,4.1-7.1,4.1c-4.7,0-8.3-8-10.8-24
		c-4.9,0.5-9.8,0.8-14.7,0.8L66.5,76.8z M69.6,71.5l8.9,0.2c6.1,0,10.8-0.2,14-0.6c-1.4-10.3-2-18.9-2-25.7v-3.3
		c-1,1.2-3.2,3.9-6.5,8c-6.1,7.5-10.6,14.1-13.5,19.7L69.6,71.5z"/>
</g>
</svg>
